<?xml version="1.0" standalone="no"?>
<!DOCTYPE svg PUBLIC "-//W3C//DTD SVG 20010904//EN"
 "http://www.w3.org/TR/2001/REC-SVG-20010904/DTD/svg10.dtd">
<svg version="1.0" xmlns="http://www.w3.org/2000/svg"
 width="3000.000000pt" height="3000.000000pt" viewBox="0 0 3000.000000 3000.000000"
 preserveAspectRatio="xMidYMid meet">
<metadata>
Created by potrace 1.11, written by Peter Selinger 2001-2013
</metadata>
<g transform="translate(0.000000,3000.000000) scale(0.100000,-0.100000)"
fill="#000000" stroke="none">
<path d="M13840 21033 c-896 -43 -1829 -328 -2625 -800 -643 -382 -1241 -923
-1712 -1548 -591 -785 -994 -1746 -1132 -2705 -43 -296 -55 -472 -55 -825 0
-366 13 -554 60 -868 147 -989 536 -1933 1114 -2702 331 -440 744 -853 1195
-1192 857 -646 1849 -1041 2906 -1158 467 -51 1102 -43 1539 21 1000 145 1958
554 2767 1181 161 124 267 216 473 406 207 192 300 287 378 384 31 39 59 71
62 70 3 -1 78 -79 167 -173 88 -93 201 -206 250 -250 1004 -913 2397 -1483
3688 -1509 183 -3 190 -3 80 5 -1182 91 -2290 506 -3132 1175 -256 203 -648
589 -851 838 l-64 77 26 43 c14 23 37 55 51 70 l26 29 22 -28 c119 -153 173
-206 497 -495 626 -559 1431 -979 2282 -1189 374 -92 715 -138 1068 -145 181
-3 191 -3 90 5 -1240 97 -2352 570 -3244 1378 -151 137 -391 385 -517 535
l-83 99 18 31 c9 18 33 49 51 71 l34 38 28 -33 c15 -19 110 -119 212 -222 286
-290 498 -466 821 -682 230 -153 403 -253 635 -365 656 -318 1308 -482 1965
-494 113 -2 185 -2 160 0 -229 19 -313 28 -425 44 -606 88 -1206 295 -1750
605 -257 146 -606 391 -810 569 -263 229 -417 390 -602 629 -92 119 -113 152
-108 170 7 24 67 117 75 116 3 0 91 -95 195 -211 211 -234 341 -360 520 -504
674 -544 1465 -892 2280 -1003 215 -29 370 -41 530 -39 l140 1 -110 8 c-1066
79 -2044 505 -2809 1222 -176 165 -508 540 -601 679 l-47 69 20 22 c11 12 28
41 37 65 10 23 21 42 25 42 4 0 48 -51 97 -112 316 -395 715 -741 1170 -1016
260 -157 665 -342 948 -432 370 -117 828 -193 1149 -188 72 1 111 3 86 5 -569
44 -1058 174 -1565 417 -516 248 -955 575 -1354 1009 -195 213 -309 366 -390
525 l-22 43 28 74 c15 41 30 75 34 75 3 0 29 -35 56 -79 134 -209 290 -392
520 -607 334 -312 629 -517 998 -695 500 -241 1036 -374 1545 -384 212 -3 213
-2 20 16 -743 70 -1523 392 -2085 861 -340 284 -673 690 -899 1094 l-57 102
27 66 c15 36 31 66 34 66 4 0 30 -37 57 -83 165 -269 397 -549 664 -803 535
-507 1203 -827 1959 -940 60 -9 196 -17 320 -19 118 -2 197 -1 175 1 -540 58
-992 189 -1437 416 -364 186 -691 442 -1017 798 -243 267 -442 587 -585 944
-38 95 -41 122 -23 200 l12 48 49 -108 c337 -749 992 -1377 1764 -1693 371
-152 713 -226 1083 -236 191 -4 184 -2 -66 25 -1128 123 -2203 1020 -2580
2155 -93 280 -124 466 -132 793 l-6 232 -1477 0 -1477 0 -6 -197 c-13 -432
-108 -803 -305 -1198 -398 -798 -1149 -1403 -2007 -1618 -266 -66 -408 -82
-770 -82 -253 0 -344 4 -432 17 -922 141 -1712 679 -2213 1508 -230 380 -368
762 -427 1180 -25 181 -25 705 0 875 91 608 369 1183 805 1668 468 521 1145
895 1819 1007 260 43 637 53 909 25 489 -52 938 -217 1384 -510 551 -363 984
-891 1234 -1505 86 -212 138 -395 182 -635 16 -84 22 -107 18 -65 -15 175 -87
465 -169 674 -163 424 -403 797 -720 1124 -288 298 -570 504 -945 692 -504
253 -966 353 -1555 337 -339 -9 -603 -56 -905 -160 -573 -197 -1088 -551
-1479 -1017 -351 -419 -615 -940 -715 -1418 -54 -254 -60 -333 -61 -702 0
-365 6 -452 51 -681 83 -428 285 -890 555 -1270 192 -270 472 -559 734 -755
460 -346 989 -568 1535 -643 219 -31 592 -40 805 -21 494 45 1004 220 1447
498 560 351 1036 888 1301 1468 30 65 60 136 66 157 7 21 15 36 18 33 7 -7
-59 -177 -118 -304 -165 -353 -460 -760 -738 -1016 -578 -534 -1302 -855
-2065 -916 -166 -13 -508 -13 -656 0 -639 58 -1275 316 -1786 726 -743 596
-1182 1365 -1309 2294 -22 161 -31 619 -16 801 52 609 267 1198 616 1686 230
320 551 643 860 864 466 332 994 536 1595 616 108 14 203 18 480 18 307 -1
361 -3 490 -23 548 -86 1029 -270 1470 -565 384 -256 756 -629 1010 -1013 299
-451 473 -914 564 -1499 3 -16 3 2 0 41 -5 94 -38 282 -75 429 -125 497 -353
956 -676 1360 -109 137 -405 440 -536 548 -414 344 -907 589 -1450 722 -1103
272 -2335 -7 -3201 -723 -139 -115 -365 -342 -484 -485 -474 -569 -759 -1247
-848 -2012 -21 -179 -24 -534 -6 -705 81 -767 384 -1488 860 -2048 126 -149
360 -376 512 -497 522 -418 1150 -694 1785 -785 758 -110 1566 14 2218 340
353 177 608 361 961 695 318 302 453 475 624 804 57 109 67 122 75 103 8 -18
-2 -40 -63 -134 -386 -595 -537 -781 -838 -1034 -566 -473 -1281 -781 -2062
-886 -219 -29 -611 -32 -830 -5 -734 91 -1406 369 -1961 812 -823 658 -1337
1577 -1459 2610 -18 150 -24 506 -11 670 42 532 170 1006 400 1480 195 401
414 708 741 1035 443 444 950 757 1545 955 373 124 698 181 1095 192 969 26
1926 -304 2647 -913 136 -115 378 -350 485 -472 220 -249 372 -472 529 -776
43 -83 79 -148 79 -145 0 14 -105 229 -170 346 -178 319 -403 618 -664 879
-390 389 -826 673 -1356 884 -626 249 -1278 343 -1905 274 -483 -53 -945 -189
-1378 -405 -387 -194 -686 -411 -1021 -739 -362 -355 -593 -670 -796 -1085
-300 -612 -435 -1245 -417 -1955 13 -493 95 -896 274 -1350 173 -438 416 -836
719 -1180 148 -168 410 -421 559 -540 710 -566 1613 -875 2555 -874 940 2
1785 293 2498 863 95 76 140 116 424 377 215 197 360 371 480 575 53 88 65
103 74 90 14 -18 -7 -53 -143 -245 -165 -233 -341 -434 -536 -615 -667 -617
-1496 -1001 -2394 -1108 -116 -14 -226 -18 -513 -18 -323 0 -384 3 -530 23
-1097 149 -2052 694 -2747 1567 -404 507 -702 1160 -827 1810 -62 323 -81 574
-73 959 8 367 35 587 113 903 117 481 324 949 595 1348 259 381 657 793 1044
1080 574 427 1308 705 2075 787 80 8 252 13 475 13 375 0 497 -10 772 -61 675
-124 1357 -440 1918 -889 625 -500 1062 -1111 1346 -1882 96 -260 183 -611
223 -893 13 -92 15 -96 10 -30 -8 112 -50 361 -90 522 -159 651 -460 1246
-893 1763 -116 139 -432 455 -571 571 -422 353 -876 606 -1395 779 -312 104
-586 164 -927 202 -195 21 -775 25 -948 5 -800 -91 -1523 -379 -2175 -867
-227 -170 -571 -498 -761 -726 -485 -581 -826 -1314 -949 -2041 -217 -1282
119 -2570 931 -3572 138 -171 489 -518 664 -657 615 -491 1314 -812 2032 -934
452 -76 995 -85 1437 -24 1117 156 2125 737 2835 1636 114 144 172 210 182
206 8 -3 14 -10 14 -15 0 -13 -222 -296 -339 -433 -269 -315 -686 -657 -1081
-887 -571 -332 -1188 -537 -1870 -620 -251 -31 -699 -31 -950 0 -1534 187
-2772 1017 -3521 2358 -298 534 -484 1108 -555 1714 -21 185 -30 694 -15 886
42 525 161 995 376 1479 218 492 491 900 877 1315 607 651 1390 1118 2252
1340 389 100 720 140 1172 140 706 0 1294 -126 1915 -411 844 -386 1612 -1074
2095 -1874 102 -169 246 -455 314 -622 30 -73 56 -131 57 -129 6 6 -93 249
-158 386 -234 500 -514 902 -908 1304 -458 466 -890 767 -1474 1025 -539 239
-1112 375 -1734 412 -475 29 -1061 -43 -1552 -191 -634 -191 -1182 -482 -1666
-889 -126 -105 -466 -442 -595 -589 -568 -644 -951 -1459 -1094 -2322 -77
-464 -86 -1025 -25 -1484 101 -757 415 -1525 882 -2159 259 -353 644 -745 991
-1012 553 -424 1260 -738 1996 -885 524 -105 995 -124 1500 -60 1093 139 2147
663 2910 1446 112 114 317 349 364 415 14 20 18 22 26 9 5 -8 10 -19 10 -25 0
-5 -43 -62 -96 -125 -591 -712 -1234 -1186 -2041 -1503 -405 -160 -821 -261
-1280 -313 -189 -21 -725 -30 -923 -15 -609 47 -1188 201 -1745 466 -1072 509
-1952 1439 -2425 2565 -195 462 -309 903 -366 1405 -35 311 -29 863 12 1185
113 889 489 1776 1049 2472 467 581 1032 1033 1710 1368 506 250 1000 401
1538 470 497 63 1114 51 1582 -30 834 -145 1665 -532 2325 -1081 558 -464 994
-1020 1320 -1684 174 -353 293 -676 379 -1026 39 -159 100 -486 102 -552 1
-18 3 -24 6 -14 7 26 -23 245 -58 420 -61 311 -140 578 -256 872 -214 541
-505 1020 -879 1445 -132 151 -488 499 -629 616 -702 581 -1547 964 -2448
1109 -303 48 -456 59 -847 59 -390 0 -518 -9 -825 -59 -775 -126 -1549 -461
-2212 -957 -372 -279 -787 -693 -1065 -1063 -356 -475 -649 -1062 -823 -1650
-349 -1185 -246 -2468 295 -3645 417 -909 1117 -1687 1987 -2210 646 -388
1365 -641 2073 -729 420 -52 901 -54 1310 -5 1295 154 2555 850 3354 1852 l58
74 21 -20 20 -20 -236 -259 c-519 -568 -976 -916 -1622 -1233 -625 -307 -1250
-473 -1955 -521 -191 -13 -633 -7 -810 11 -1129 111 -2173 550 -3006 1264
-252 217 -562 543 -771 812 -353 454 -662 1034 -842 1584 -176 538 -248 978
-258 1580 -11 637 50 1099 217 1655 325 1077 1021 2062 1955 2765 813 612
1801 977 2835 1050 185 13 614 13 795 0 796 -56 1569 -295 2286 -705 690 -395
1335 -988 1784 -1640 224 -325 449 -745 580 -1083 16 -39 30 -70 32 -68 8 8
-122 316 -211 501 -275 567 -595 1016 -1045 1465 -363 362 -702 624 -1121 865
-726 418 -1495 665 -2340 751 -201 21 -662 24 -860 5 -1070 -99 -2063 -477
-2895 -1101 -374 -280 -806 -712 -1086 -1085 -547 -728 -918 -1618 -1049
-2514 -69 -473 -78 -1033 -24 -1501 94 -820 403 -1657 881 -2384 632 -962
1482 -1662 2533 -2084 898 -361 1818 -495 2717 -397 1284 141 2483 721 3373
1632 80 81 190 194 244 251 70 73 102 100 109 93 16 -16 -90 -166 -182 -259
-112 -113 -462 -438 -566 -528 -807 -689 -1876 -1147 -2960 -1268 -434 -49
-980 -49 -1390 0 -972 115 -1892 484 -2673 1072 -198 149 -400 329 -673 602
-271 271 -397 413 -571 646 -602 809 -976 1863 -1048 2959 -13 194 -13 650 0
835 84 1207 522 2300 1292 3220 201 240 553 600 768 786 800 691 1855 1138
2995 1268 356 41 971 46 1300 11 1138 -121 2216 -580 3135 -1334 408 -335 769
-736 1081 -1201 473 -705 795 -1541 918 -2385 11 -77 23 -153 25 -170 3 -16 3
4 0 46 -3 42 -13 134 -24 205 -123 829 -430 1635 -886 2325 -416 631 -1008
1222 -1659 1656 -784 522 -1717 858 -2645 952 -257 26 -706 37 -980 24z m5891
-7144 c-21 -81 -28 -57 -10 35 7 34 16 53 21 48 5 -5 1 -39 -11 -83z m-1932
-21 c-8 -19 -15 -26 -22 -19 -6 6 -3 26 9 58 18 45 19 46 22 19 2 -15 -2 -41
-9 -58z m1561 22 c-6 -19 -10 -47 -10 -62 0 -30 -11 -36 -28 -15 -8 9 -6 31 5
76 13 52 18 60 29 49 11 -10 11 -22 4 -48z m-775 -7 c-9 -37 -18 -20 -9 19 4
18 9 27 11 20 3 -7 2 -24 -2 -39z m375 -40 c-10 -52 -15 -62 -23 -48 -6 12 -4
35 9 78 22 74 30 58 14 -30z m-753 60 c-3 -10 -13 -36 -21 -58 l-15 -40 -1 32
c0 36 18 83 33 83 5 0 7 -8 4 -17z m1366 -590 c-14 -49 -21 -60 -32 -53 -12 7
-10 20 15 82 33 84 44 66 17 -29z m-1604 -9 c-19 -45 -22 -47 -31 -28 -8 17
-4 32 18 70 23 39 30 45 32 28 2 -11 -7 -42 -19 -70z m408 8 c-8 -21 -18 -46
-22 -57 -7 -20 -7 -20 -17 1 -8 17 -4 32 18 70 31 52 45 43 21 -14z m398 -9
c-25 -92 -25 -91 -37 -69 -8 14 -4 31 18 77 15 32 29 57 32 55 2 -3 -4 -31
-13 -63z m400 5 c-22 -67 -25 -72 -37 -60 -6 6 1 30 18 65 16 31 30 55 32 52
2 -2 -4 -28 -13 -57z m247 -381 c-1 -9 -14 -42 -28 -73 -17 -38 -28 -54 -35
-47 -13 13 40 145 55 140 6 -2 10 -11 8 -20z m-857 -78 c-25 -51 -30 -56 -41
-41 -10 14 -7 27 18 76 26 51 32 57 40 42 8 -14 4 -33 -17 -77z m419 8 c-18
-44 -31 -64 -40 -60 -20 7 -18 16 17 85 42 83 60 65 23 -25z m-843 7 c-16 -33
-30 -51 -31 -41 0 20 50 111 57 103 2 -2 -9 -30 -26 -62z m202 -390 c-15 -26
-32 -45 -38 -43 -16 6 -9 28 27 80 27 40 34 45 36 29 2 -11 -9 -41 -25 -66z
m902 76 c4 -6 -5 -24 -19 -40 -13 -17 -30 -45 -37 -64 -8 -21 -17 -32 -26 -29
-21 8 -16 26 24 87 38 57 47 64 58 46z m-435 -25 c0 -7 -17 -37 -37 -68 -35
-54 -37 -55 -51 -36 -13 18 -12 23 5 42 11 12 28 36 38 54 18 30 45 35 45 8z
m192 -404 c-41 -49 -52 -58 -62 -47 -8 10 -8 16 0 21 6 3 24 34 41 67 l31 61
20 -21 21 -21 -51 -60z m-412 60 c0 -16 -83 -120 -91 -115 -15 9 -10 20 32 77
37 50 59 64 59 38z m203 -375 c-20 -28 -44 -59 -54 -70 -16 -18 -17 -18 -24 3
-9 28 83 144 102 128 10 -7 4 -21 -24 -61z"/>
<path d="M19366 17040 c3 -14 11 -32 16 -40 6 -10 7 -7 2 10 -3 14 -11 32 -16
40 -6 10 -7 7 -2 -10z"/>
<path d="M18686 16770 c3 -14 11 -32 16 -40 6 -10 7 -7 2 10 -3 14 -11 32 -16
40 -6 10 -7 7 -2 -10z"/>
<path d="M17881 16775 c0 -5 6 -21 14 -35 8 -14 14 -20 14 -15 0 6 -6 21 -14
35 -8 14 -14 21 -14 15z"/>
<path d="M17910 16705 c0 -5 5 -17 10 -25 5 -8 10 -10 10 -5 0 6 -5 17 -10 25
-5 8 -10 11 -10 5z"/>
<path d="M20043 15750 c0 -25 2 -35 4 -22 2 12 2 32 0 45 -2 12 -4 2 -4 -23z"/>
<path d="M19303 15710 c0 -25 2 -35 4 -22 2 12 2 32 0 45 -2 12 -4 2 -4 -23z"/>
<path d="M20053 15630 c0 -25 2 -35 4 -22 2 12 2 32 0 45 -2 12 -4 2 -4 -23z"/>
<path d="M19313 15600 c0 -25 2 -35 4 -22 2 12 2 32 0 45 -2 12 -4 2 -4 -23z"/>
<path d="M18573 15570 c0 -25 2 -35 4 -22 2 12 2 32 0 45 -2 12 -4 2 -4 -23z"/>
<path d="M17833 15540 c0 -25 2 -35 4 -22 2 12 2 32 0 45 -2 12 -4 2 -4 -23z"/>
<path d="M17473 15520 c0 -25 2 -35 4 -22 2 12 2 32 0 45 -2 12 -4 2 -4 -23z"/>
<path d="M18581 15444 c0 -11 3 -14 6 -6 3 7 2 16 -1 19 -3 4 -6 -2 -5 -13z"/>
<path d="M17842 15420 c0 -19 2 -27 5 -17 2 9 2 25 0 35 -3 9 -5 1 -5 -18z"/>
<path d="M17482 15405 c0 -16 2 -22 5 -12 2 9 2 23 0 30 -3 6 -5 -1 -5 -18z"/>
</g>
</svg>
